# xmcd
# Track frame offsets:
# 150
# 13013
# 26958
# 38915
# 51018
# 63898
# 74738
# 86640
# 98708
# 110815
# 125588
# 141275
# 154218
# 167015
# 179323
# 200543
# 213445
# 230388
# 243820
# 256195
# 269303
# 282878
# 293985
# 309793
#
# Disc length: 4409 seconds
# Revision: 0
# Processed by: cddbd v1.4PL0 Copyright (c) Steve Scherf et al.
# Submitted via: VisiTrax 2.9.5.181 - For more info visit www.synapsa.com
#
DISCID=60113718
DTITLE=Various Blues Artists - A Modern Blues Anthology Ain't Times Hard - Di
DTITLE=sc 4 Spider In My Stew
DYEAR=1994
DGENRE=
TTITLE0=Big Mac - Rough Dried Woman, Pt.1
TTITLE1=Polka Dot Slim - Ain't Broke Ain't Hungry
TTITLE2=Lonnie Brooks - Figure Head
TTITLE3=Detroit Junior - The Way I Feel
TTITLE4=Carter Brothers - Southern Country Boy
TTITLE5=Magic Sam - Out Of Bad Luck
TTITLE6=Frank Frost - Ride With Your Daddy Tonight
TTITLE7=Fenton Robinson - Say You're Leavin'
TTITLE8=Jerry McCain - Crazy About Entertainers
TTITLE9=Mighty Joe Young - Hard Times
TTITLE10=Johnny "Big Moose" Walker - Rambling Woman
TTITLE11=Wild Child Butler - Put It All In There
TTITLE12=Lightnin' Hopkins - Long Way From Home
TTITLE13=Ike And Tina Turner - Rock Me Baby
TTITLE14=Calvin Leavy - Cummins Prison Farm
TTITLE15=T. Bone Walker - Stormy Monday Blues
TTITLE16=Little Joe Blue - Shakin' Hands With The Judge
TTITLE17=Lowell Fulson - My Baby
TTITLE18=Al King - High Cost Of Livin'
TTITLE19=Little Johnny Taylor - It's My Fault Darling
TTITLE20=Albert Washington - Go And Help Yourself
TTITLE21=Bobby Rush - Bowlegged Woman, Knock-Kneed Man
TTITLE22=Buster Benton - Spider In My Stew
TTITLE23=Eddie Lang - Food Stamp Blues
EXTD=Charly Blues CD DIG 3\nBoxed Set of 4
EXTT0=
EXTT1=
EXTT2=
EXTT3=
EXTT4=
EXTT5=
EXTT6=
EXTT7=
EXTT8=
EXTT9=
EXTT10=
EXTT11=
EXTT12=
EXTT13=
EXTT14=
EXTT15=
EXTT16=
EXTT17=
EXTT18=
EXTT19=
EXTT20=
EXTT21=
EXTT22=
EXTT23=
PLAYORDER=
